Coordinates
version=1
nRows=8
nColumns=42
inDegrees=yes

Units are S.I. units (second, meters, Newtons, ...)
If the header above contains a line with 'inDegrees', this indicates whether rotational values are in degrees (yes) or radians (no).

endheader
time	pelvis_tilt	pelvis_list	pelvis_rotation	pelvis_tx	pelvis_ty	pelvis_tz	hip_flexion_r	hip_adduction_r	hip_rotation_r	knee_angle_r	knee_angle_r_beta	ankle_angle_r	subtalar_angle_r	mtp_angle_r	hip_flexion_l	hip_adduction_l	hip_rotation_l	knee_angle_l	knee_angle_l_beta	ankle_angle_l	subtalar_angle_l	mtp_angle_l	lumbar_extension	lumbar_bending	lumbar_rotation	sh_tx_r	sh_ty_r	sh_tz_r	sh_plane_elev_r	sh_elev_r	sh_axial_rot_r	elbow_flex_r	pro_sup_r	sh_tx_l	sh_ty_l	sh_tz_l	sh_plane_elev_l	sh_elev_l	sh_axial_rot_l	elbow_flex_l	pro_sup_l
      0.00000000	     -7.21742479	     -0.17099027	     -1.14945427	     -0.05670206	      0.95274422	     -0.11979182	     16.89840369	      0.16627267	      6.42888171	     19.12442243	      0.33378414	     -2.95463768	    -19.83841904	     -5.98347726	     16.32922948	      2.95583790	     -3.40621445	     13.75479935	      0.24006654	      7.36984414	     -6.27797924	     -5.98347726	     -7.85091832	      0.85902429	     -2.28793180	      0.02177943	     -0.01679147	     -0.00496922	     20.06665932	     14.58776284	     -8.46998419	     34.35210112	     77.51484331	      0.02234704	     -0.01669202	     -0.00499288	     19.69640258	      7.63516464	     -4.59304345	     35.33696294	     69.97992547
      0.01694910	     -8.79137810	      0.00469117	     -0.56493975	     -0.06043673	      0.94938558	     -0.12358611	     18.46348882	     -0.20841800	      7.26923825	     18.89507371	      0.32978125	      1.11848818	    -14.64662921	     -6.36115654	     18.78862176	      3.77421510	     -2.92271316	     15.06929474	      0.26300881	      8.41809989	     -4.69336544	     -6.36115654	     -5.22836385	      0.65033048	     -3.10509075	      0.02897691	     -0.01687044	     -0.00495857	     13.02470136	     12.39123588	     -7.65404472	     35.46442173	     77.22134270	      0.02715170	     -0.01678483	     -0.00502686	     15.34488662	      6.33686090	     -4.30160398	     35.34866885	     71.04287197
      0.03389830	     -9.61099375	      0.44463474	     -1.07294745	     -0.06277379	      0.94791970	     -0.12449652	     19.36720136	     -0.74426470	      7.04214129	     18.28367962	      0.31911041	      2.43964520	    -13.45477322	     -6.45161172	     19.69879314	      4.10782909	     -3.38803713	     14.97117805	      0.26129635	      7.85893172	     -5.06122602	     -6.45161172	     -4.61489517	     -0.01839235	     -3.00679430	      0.03091776	     -0.01705722	     -0.00483038	     13.30565144	     11.93282217	     -9.54097268	     35.75074338	     76.08047383	      0.02697775	     -0.01693607	     -0.00508165	     16.89447443	      7.13379471	     -5.16854936	     35.36038985	     70.36758807
      0.05084750	     -9.68346190	      0.53466348	     -1.16164419	     -0.06542235	      0.94915482	     -0.12736485	     19.72932791	     -0.99790593	      6.98526249	     18.31574450	      0.31967005	      2.98279101	    -12.38803285	     -6.53047925	     19.98082745	      4.36591757	     -2.87070565	     15.13179025	      0.26409956	      7.60366882	     -6.09387595	     -6.53047925	     -5.37870360	     -0.20035761	     -3.06652763	      0.03326323	     -0.01745779	     -0.00481725	     13.65497749	     11.80972824	    -10.65791073	     36.70022665	     75.00382609	      0.02725210	     -0.01731571	     -0.00513143	     18.77892551	      8.13082555	     -5.49779009	     35.80594127	     69.81064321
      0.06779660	     -9.80506214	      0.48569603	     -1.34709984	     -0.07186129	      0.94940481	     -0.13358276	     20.47633280	     -1.18810029	      6.99018844	     18.70066169	      0.32638812	      3.11296541	    -12.28842137	     -6.81855710	     20.55127848	      4.60757438	     -2.64897106	     15.32293853	      0.26743573	      7.15518165	     -6.96562078	     -6.81855710	     -6.41596628	     -0.04353482	     -2.45645251	      0.03476706	     -0.01758443	     -0.00477524	     12.77768942	     12.04037654	    -10.71682294	     38.43079363	     74.07125556	      0.02952766	     -0.01750771	     -0.00530637	     23.75815930	      9.33524233	     -7.58588324	     36.37888746	     70.22256254
      0.08474580	     -9.99535236	      0.31154565	     -1.42447085	     -0.07693030	      0.94842444	     -0.13681263	     21.31141111	     -1.27652968	      6.90413254	     19.12581667	      0.33380847	      3.05846756	    -11.76797251	     -6.86457231	     21.34078163	      4.67909740	     -2.56043552	     15.64785183	      0.27310654	      6.75887842	     -7.83658216	     -6.86457231	     -7.44601090	      0.24764563	     -2.51396789	      0.03705281	     -0.01767005	     -0.00476190	     14.31860841	     12.66019565	    -11.82459448	     39.54523259	     73.34329974	      0.03155018	     -0.01762125	     -0.00547346	     25.90283909	     10.19092316	     -7.87299035	     37.18955246	     69.55830976
      0.10169490	    -10.33363207	      0.08285544	     -1.52602163	     -0.08044999	      0.94311944	     -0.14080148	     22.35416665	     -1.34210679	      6.59829205	     19.97653777	      0.34865636	      3.50493335	    -11.17113461	     -6.96730195	     22.42238752	      4.69794328	     -2.59844067	     16.23763422	      0.28340018	      6.51865471	     -8.71701211	     -6.96730195	     -8.51646327	      0.53196792	     -2.67936334	      0.03811789	     -0.01768104	     -0.00480904	     16.82464408	     13.54233313	    -13.35862447	     40.49495737	     72.13811415	      0.03231822	     -0.01761999	     -0.00568679	     29.08412702	     11.22277371	     -9.16463112	     37.93027267	     68.36361734
      0.11864410	    -10.77055437	     -0.14965746	     -1.54713481	     -0.08827414	      0.94895489	     -0.14389946	     23.47340363	     -1.52233201	      6.41102765	     20.83860506	      0.36370227	      4.02371424	     -9.99123490	     -7.01897776	     23.66118475	      4.65674935	     -2.78244865	     16.99931869	      0.29669408	      5.87916512	     -9.99637913	     -7.01897776	     -9.57420711	      0.94063219	     -2.68867309	      0.03983108	     -0.01765196	     -0.00488117	     18.39168851	     14.34405268	    -14.43229737	     41.73814071	     71.62513639	      0.03464786	     -0.01759441	     -0.00588699	     31.18438188	     12.03858449	     -9.56027824	     38.89050804	     67.87739131
